<svg xmlns="http://www.w3.org/2000/svg" width="83.682" height="83.689" viewBox="0 0 83.682 83.689"><defs><style>.a{fill:#0063bc;}</style></defs><g transform="translate(-0.019)"><g transform="translate(0.019)"><path class="a" d="M71.422,12.261a41.835,41.835,0,0,0-61.8,56.264c-1.345,2.707-3.5,5.856-6.706,7.431a3.925,3.925,0,0,0,1.132,7.4,21.624,21.624,0,0,0,3.309.248,24.98,24.98,0,0,0,14.721-4.883A41.83,41.83,0,0,0,71.422,12.261ZM68.042,68.048a37.057,37.057,0,0,1-44.976,5.768,2.379,2.379,0,0,0-2.9.372.786.786,0,0,0-.195.142A20.427,20.427,0,0,1,7.355,78.823H7.337a23.426,23.426,0,0,0,7.183-9.537,2.444,2.444,0,0,0,.124-1.539A2.484,2.484,0,0,0,14.06,66.4a37.061,37.061,0,1,1,53.982,1.645Z" transform="translate(-0.019)"/><circle class="a" cx="2.937" cy="2.937" r="2.937" transform="translate(38.883 38.907)"/><circle class="a" cx="2.937" cy="2.937" r="2.937" transform="translate(54.028 38.907)"/><circle class="a" cx="2.937" cy="2.937" r="2.937" transform="translate(23.738 38.907)"/></g></g></svg>