<svg xmlns="http://www.w3.org/2000/svg" width="39.273" height="27" viewBox="0 0 39.273 27"><defs><style>.a{fill:#fff;}</style></defs><g transform="translate(0 -80)"><g transform="translate(26.033 84.978)"><path class="a" d="M339.392,153.619l13.24,8.37V144.9Z" transform="translate(-339.392 -144.896)"/></g><g transform="translate(0 84.978)"><path class="a" d="M0,144.9v17.093l13.24-8.37Z" transform="translate(0 -144.896)"/></g><g transform="translate(0.074 80)"><path class="a" d="M37.7,80H3.341A2.424,2.424,0,0,0,.96,82.089L20.523,94.978,40.085,82.089A2.424,2.424,0,0,0,37.7,80Z" transform="translate(-0.96 -80)"/></g><g transform="translate(0.079 95.181)"><path class="a" d="M24.73,277.922l-3.473,2.288a1.232,1.232,0,0,1-1.35,0l-3.473-2.29-15.41,9.747A2.42,2.42,0,0,0,3.4,289.739H37.764a2.42,2.42,0,0,0,2.376-2.072Z" transform="translate(-1.024 -277.92)"/></g></g></svg>