<svg xmlns="http://www.w3.org/2000/svg" width="98.528" height="96.559" viewBox="0 0 98.528 96.559"><defs><style>.a{fill:#0063bc;}</style></defs><g transform="translate(0 -5.115)"><g transform="translate(73.363 56.207)"><path class="a" d="M389.171,270.613a1.434,1.434,0,0,0-1.434,1.434,1.821,1.821,0,0,1-3.641,0,1.434,1.434,0,0,0-2.868,0,4.688,4.688,0,0,0,9.377,0A1.434,1.434,0,0,0,389.171,270.613Z" transform="translate(-381.228 -270.613)"/></g><g transform="translate(0 5.115)"><path class="a" d="M94.765,56.441l-4.036-1.293a1.688,1.688,0,0,1-1.09-1.1A26.021,26.021,0,0,0,85.824,46.5a27.691,27.691,0,0,0-2.549-3.006,35.567,35.567,0,0,0,.877-8.122c-.06-3.653-.79-5.8-2.232-6.551-.776-.407-3.14-1.644-15.93,4.211a4.654,4.654,0,0,0-.848.5c-.862-.232-1.744-.446-2.63-.639-.107-.023-.217-.044-.324-.067a19.533,19.533,0,0,0,1.755-7.262,1.434,1.434,0,0,0-2.865-.128A16.684,16.684,0,0,1,50.163,40.356a41.582,41.582,0,0,0-11.542,0,16.7,16.7,0,1,1,20.7-23.181,1.434,1.434,0,0,0,2.562-1.29A19.573,19.573,0,1,0,34.006,41.277h0q-1.337.348-2.651.784a1.434,1.434,0,0,0,.909,2.72,38.481,38.481,0,0,1,24.253,0,1.434,1.434,0,0,0,.909-2.72q-1.313-.439-2.651-.784h0a19.552,19.552,0,0,0,5.952-5.82c.4.077.788.157,1.174.241q.772.168,1.536.358c-.016.062-.032.125-.046.188a17.1,17.1,0,0,0,.135,8.723,10.381,10.381,0,0,0,3.8,5.345,12.062,12.062,0,0,0,7.058,2.24,9.462,9.462,0,0,0,4.574-1.058c1.348-.763,2.477-2.372,3.371-4.787q.62.723,1.174,1.482a23.153,23.153,0,0,1,3.4,6.716,4.56,4.56,0,0,0,2.95,2.975l4.036,1.293a2.539,2.539,0,0,1,1.77,2.426V68.29a2.539,2.539,0,0,1-1.77,2.426l-6.5,2.083a4.43,4.43,0,0,0-2.479,2.013A28.58,28.58,0,0,1,72.971,85.671a2.247,2.247,0,0,0-1.179,1.584L69.71,98.282a.645.645,0,0,1-.633.524H62.305a.645.645,0,0,1-.633-.524l-1.153-6.094a2.253,2.253,0,0,0-2.562-1.812,59.941,59.941,0,0,1-8.933.664,57.168,57.168,0,0,1-6.572-.371,2.271,2.271,0,0,0-2.485,1.823l-1.1,5.791a.645.645,0,0,1-.633.524H31.467a.646.646,0,0,1-.634-.529L28.828,87.863A2.251,2.251,0,0,0,27.671,86.3c-9.149-4.884-13.985-13.044-13.985-23.6a27.565,27.565,0,0,1,3.467-14.014,25.018,25.018,0,0,1,9.32-9.1A1.434,1.434,0,0,0,25.037,37.1a27.293,27.293,0,0,0-13.85,20.388h0c-.138-.013-.276-.024-.414-.039a7.139,7.139,0,0,0-.525-2.861,5.873,5.873,0,0,0-4.354-3.8,3.963,3.963,0,0,0-3.732,1.662c-1.368,1.808-1.145,3.238-.717,4.12.722,1.488,2.579,2.541,5.659,3.2q-.127.19-.28.382a7.036,7.036,0,0,1-5.357,2.835A1.505,1.505,0,0,0,0,64.489V64.5a1.5,1.5,0,0,0,1.439,1.5q.154.007.323.007c1.762,0,4.59-.65,7.307-4.057a8.178,8.178,0,0,0,1.047-1.691q.406.046.78.08v0c-.049.777-.076,1.565-.076,2.368a29.55,29.55,0,0,0,4.231,15.824A28.99,28.99,0,0,0,26.067,88.69l1.949,10.125a3.515,3.515,0,0,0,3.451,2.859h6.771a3.515,3.515,0,0,0,3.451-2.859l.991-5.236a60.432,60.432,0,0,0,6.344.328A63,63,0,0,0,57.81,93.3l1.045,5.52a3.515,3.515,0,0,0,3.451,2.859h6.771a3.515,3.515,0,0,0,3.451-2.859l2.028-10.736a31.263,31.263,0,0,0,12.836-11.83,1.567,1.567,0,0,1,.872-.718l6.5-2.083a5.4,5.4,0,0,0,3.763-5.158V61.6A5.4,5.4,0,0,0,94.765,56.441ZM81.07,39.4c-.552,4.72-2.032,8.757-3.52,9.6-1.691.958-5.594,1.143-8.525-1S65.114,41.991,66.2,36.835h0a1.73,1.73,0,0,1,.984-1.2c7.179-3.286,11.317-4.361,12.855-4.361a1.5,1.5,0,0,1,.52.069C81.021,31.838,81.627,34.636,81.07,39.4ZM4.026,55.319c-.148-.306.2-.844.424-1.138a1.144,1.144,0,0,1,.921-.56,1.076,1.076,0,0,1,.144.01,3.125,3.125,0,0,1,2.072,2.03,4.354,4.354,0,0,1,.3,1.352C5.9,56.6,4.361,56.01,4.026,55.319Z" transform="translate(0 -5.115)"/></g><g transform="translate(39.035 14.322)"><path class="a" d="M209.594,61.68V56.549c1.769.126,2.427.935,3.033.935.758,0,1.112-.96,1.112-1.441,0-1.239-2.427-1.769-4.146-1.82V53.54c0-.3-.379-.581-.758-.581a.667.667,0,0,0-.733.581v.733c-2.4.253-4.8,1.517-4.8,4.7,0,3.236,2.528,4.146,4.8,4.955v5.94c-2.578-.2-3.261-1.972-4.1-1.972-.632,0-1.163.834-1.163,1.441,0,1.239,2.123,2.932,5.258,2.983h0v.784a.667.667,0,0,0,.733.581c.379,0,.758-.278.758-.581v-.859a4.9,4.9,0,0,0,4.6-5.207C214.2,63.6,211.794,62.489,209.594,61.68Zm-1.34-.48c-1.34-.506-2.427-1.036-2.427-2.477,0-1.315,1.011-1.947,2.427-2.123Zm1.188,8.62V64.486c1.239.531,2.224,1.239,2.224,2.831A2.4,2.4,0,0,1,209.443,69.819Z" transform="translate(-202.845 -52.959)"/></g></g></svg>