<svg xmlns="http://www.w3.org/2000/svg" width="105.872" height="79.404" viewBox="0 0 105.872 79.404"><defs><style>.a{fill:#0063bc;}</style></defs><g transform="translate(0 -64)"><g transform="translate(0 64)"><path class="a" d="M97.049,64H8.823A8.833,8.833,0,0,0,0,72.823v52.936a8.833,8.833,0,0,0,8.823,8.823h37.5v4.411H33.085a2.206,2.206,0,1,0,0,4.411h39.7a2.206,2.206,0,1,0,0-4.411H59.553v-4.411h37.5a8.833,8.833,0,0,0,8.823-8.823V72.823A8.833,8.833,0,0,0,97.049,64ZM55.142,138.993H50.731v-4.411h4.411Zm46.319-13.234a4.416,4.416,0,0,1-4.411,4.411H8.823a4.416,4.416,0,0,1-4.411-4.411V72.823a4.416,4.416,0,0,1,4.411-4.411H97.05a4.416,4.416,0,0,1,4.411,4.411Z" transform="translate(0 -64)"/></g></g></svg>