<svg xmlns="http://www.w3.org/2000/svg" width="41.741" height="41.741" viewBox="0 0 41.741 41.741"><defs><style>.a{fill:#0063bc;}</style></defs><g transform="translate(11.827 16.696)"><path class="a" d="M148.544,204.8a3.478,3.478,0,0,0,0,6.957.7.7,0,0,0,0-1.391,2.087,2.087,0,1,1,2.087-2.087.7.7,0,1,0,1.391,0A3.482,3.482,0,0,0,148.544,204.8Z" transform="translate(-145.066 -204.8)"/></g><g transform="translate(15.305 13.914)"><path class="a" d="M191.211,170.667a3.482,3.482,0,0,0-3.478,3.478.7.7,0,1,0,1.391,0,2.087,2.087,0,0,1,4.174,0,.7.7,0,1,0,1.391,0A3.482,3.482,0,0,0,191.211,170.667Z" transform="translate(-187.733 -170.667)"/></g><g transform="translate(20.175 11.827)"><path class="a" d="M250.944,145.067a3.482,3.482,0,0,0-3.478,3.478.7.7,0,1,0,1.391,0,2.087,2.087,0,0,1,4.174,0,.7.7,0,1,0,1.391,0A3.482,3.482,0,0,0,250.944,145.067Z" transform="translate(-247.466 -145.067)"/></g><g transform="translate(22.957 15.305)"><path class="a" d="M285.078,187.733a3.482,3.482,0,0,0-3.478,3.478.7.7,0,1,0,1.391,0,2.087,2.087,0,1,1,4.174,0,.7.7,0,0,0,1.391,0A3.482,3.482,0,0,0,285.078,187.733Z" transform="translate(-281.6 -187.733)"/></g><g transform="translate(8.348 34.784)"><path class="a" d="M126.749,426.667H103.1a.7.7,0,0,0-.7.7v3.293a2.971,2.971,0,0,0,2.968,2.968h19.109a2.971,2.971,0,0,0,2.968-2.968v-3.293A.7.7,0,0,0,126.749,426.667Zm-.7,3.989a1.578,1.578,0,0,1-1.576,1.576h-19.11a1.578,1.578,0,0,1-1.576-1.576v-2.6h22.262Z" transform="translate(-102.4 -426.667)"/></g><g transform="translate(18.088 37.567)"><path class="a" d="M226.737,460.8h-4.174a.7.7,0,1,0,0,1.391h4.174a.7.7,0,1,0,0-1.391Z" transform="translate(-221.867 -460.8)"/></g><g transform="translate(25.74 37.567)"><path class="a" d="M319.212,460.8H316.43a.7.7,0,0,0,0,1.391h2.783a.7.7,0,1,0,0-1.391Z" transform="translate(-315.734 -460.8)"/></g><g transform="translate(11.827 37.567)"><path class="a" d="M148.545,460.8h-2.783a.7.7,0,0,0,0,1.391h2.783a.7.7,0,1,0,0-1.391Z" transform="translate(-145.067 -460.8)"/></g><g transform="translate(8.348)"><path class="a" d="M124.477,0h-19.11A2.971,2.971,0,0,0,102.4,2.968V6.261a.7.7,0,0,0,.7.7h23.653a.7.7,0,0,0,.7-.7V2.968A2.971,2.971,0,0,0,124.477,0Zm1.576,5.565H103.791v-2.6a1.578,1.578,0,0,1,1.576-1.576h19.109a1.578,1.578,0,0,1,1.576,1.576v2.6Z" transform="translate(-102.4)"/></g><g transform="translate(16.696 2.783)"><path class="a" d="M212.453,34.133H205.5a.7.7,0,0,0,0,1.391h6.957a.7.7,0,0,0,0-1.391Z" transform="translate(-204.801 -34.133)"/></g><g transform="translate(8.348 5.565)"><path class="a" d="M126.749,68.267H103.1a.7.7,0,0,0-.7.7V98.181a.7.7,0,0,0,.7.7h23.653a.7.7,0,0,0,.7-.7V68.963A.7.7,0,0,0,126.749,68.267Zm-.7,29.219H103.791V69.658h22.262V97.486Z" transform="translate(-102.4 -68.267)"/></g><g transform="translate(35.475 15.305)"><path class="a" d="M436.51,188.235a.7.7,0,0,0-1.336.388,16.811,16.811,0,0,1,0,9.366.7.7,0,0,0,.473.863.707.707,0,0,0,.2.028.7.7,0,0,0,.668-.5,18.2,18.2,0,0,0,0-10.144Z" transform="translate(-435.141 -187.733)"/></g><g transform="translate(4.179 15.304)"><path class="a" d="M53.319,197.981a16.805,16.805,0,0,1,0-9.367.7.7,0,0,0-1.336-.388,18.2,18.2,0,0,0,0,10.144.7.7,0,0,0,.667.5.681.681,0,0,0,.2-.028A.7.7,0,0,0,53.319,197.981Z" transform="translate(-51.26 -187.725)"/></g><g transform="translate(0 12.522)"><path class="a" d="M1.391,161.947a18.651,18.651,0,0,1,1.331-7.369.7.7,0,0,0-1.27-.568,22.422,22.422,0,0,0,0,15.873.7.7,0,0,0,.636.412.686.686,0,0,0,.284-.061.7.7,0,0,0,.351-.919A18.651,18.651,0,0,1,1.391,161.947Z" transform="translate(0 -153.599)"/></g><g transform="translate(38.958 12.522)"><path class="a" d="M479.2,154.008a.7.7,0,0,0-1.27.568,21.07,21.07,0,0,1,0,14.737.7.7,0,0,0,.351.919.682.682,0,0,0,.283.061.7.7,0,0,0,.635-.412,22.417,22.417,0,0,0,0-15.873Z" transform="translate(-477.866 -153.596)"/></g><g transform="translate(13.914 28.523)"><path class="a" d="M183.885,349.867H171.363a.7.7,0,1,0,0,1.391h12.522a.7.7,0,1,0,0-1.391Z" transform="translate(-170.667 -349.867)"/></g><g transform="translate(11.131 25.74)"><path class="a" d="M155.317,315.733H137.23a.7.7,0,0,0-.7.7v5.565a.7.7,0,0,0,.7.7h18.088a.7.7,0,0,0,.7-.7v-5.565A.7.7,0,0,0,155.317,315.733Zm-.7,5.565h-16.7v-4.174h16.7Z" transform="translate(-136.534 -315.733)"/></g></svg>