<svg xmlns="http://www.w3.org/2000/svg" width="41.917" height="35" viewBox="0 0 41.917 35"><defs><style>.a{fill:#0063bc;}</style></defs><g transform="translate(0 -45.5)"><g transform="translate(18.263 74.399)"><g transform="translate(0 0)"><ellipse class="a" cx="2.5" cy="3" rx="2.5" ry="3" transform="translate(0.238 0.101)"/></g></g><g transform="translate(0 45.5)"><path class="a" d="M41.477,54.453a27.988,27.988,0,0,0-41.038,0,1.637,1.637,0,1,0,2.4,2.233,24.714,24.714,0,0,1,36.246,0,1.637,1.637,0,1,0,2.4-2.233Z" transform="translate(0 -45.5)"/></g><g transform="translate(5.977 55.001)"><path class="a" d="M102.487,167.762a20.039,20.039,0,0,0-29.014,0,1.637,1.637,0,0,0,2.325,2.307,16.766,16.766,0,0,1,24.365,0,1.637,1.637,0,0,0,2.324-2.307Z" transform="translate(-72.998 -161.547)"/></g><g transform="translate(12.369 64.575)"><path class="a" d="M167.619,281.921a11.815,11.815,0,0,0-7.969-3.421h-.12a11.816,11.816,0,0,0-7.969,3.421,1.637,1.637,0,0,0,2.3,2.326,8.55,8.55,0,0,1,5.665-2.473h.12a8.55,8.55,0,0,1,5.664,2.473,1.637,1.637,0,0,0,2.3-2.326Z" transform="translate(-151.076 -278.5)"/></g></g></svg>